#!OML:ASF I:\golf\golf\golf 2\Subject 1\2002-09-07\Subject1.ASF
:FULLY-SPECIFIED
:DEGREES
422
root 2.00431 13.1871 -2.40546 22.3434 -2.08648 -2.45713
lowerback 40.4195 7.55042 6.02297
upperback 13.8967 11.5111 5.38065
thorax -3.79964 5.37312 -1.53354
lowerneck 0.312563 -8.10254 0.305283
upperneck 19.1679 -8.9597 -10.6526
head 5.17558 -4.78703 -3.71536
rclavicle -1.17681e-013 -2.14687e-014
rhumerus 29.0506 -24.0027 -84.5963
rradius 29.1135
rwrist -10.8397
rhand -37.983 7.45016
rfingers 7.12502
rthumb -11.0229 -22.2404
lclavicle -1.17681e-013 -2.14687e-014
lhumerus -37.6801 -50.069 98.8102
lradius 96.202
lwrist -21.7855
lhand -47.1226 23.7227
lfingers 7.12502
lthumb -19.8251 52.7316
rfemur -84.6228 -39.8497 39.5884
rtibia 108.774
rfoot -27.677 1.54953
rtoes -15.9681
lfemur -87.3758 7.86074 -21.491
ltibia 97.1179
lfoot -25.3386 -9.14347
ltoes -9.80356
423
root 2.00155 13.2649 -2.40749 22.5201 -1.98465 -2.40256
lowerback 40.2904 7.54237 5.87382
upperback 13.8513 11.4506 5.39962
thorax -3.84453 5.33892 -1.41875
lowerneck 0.262911 -8.0849 0.244077
upperneck 19.0427 -8.9539 -10.5914
head 5.15231 -4.78587 -3.68428
rclavicle 0 1.51076e-014
rhumerus 28.8787 -23.7354 -84.1379
rradius 28.7658
rwrist -10.9274
rhand -37.595 5.95501
rfingers 7.12502
rthumb -10.6486 -23.7552
lclavicle 0 1.51076e-014
lhumerus -37.5471 -50.1256 98.8081
lradius 95.9926
lwrist -21.2144
lhand -46.6827 23.8091
lfingers 7.12502
lthumb -19.4022 52.8611
rfemur -84.2309 -39.5423 39.5181
rtibia 107.849
rfoot -27.6623 1.39327
rtoes -15.67
lfemur -87.0368 7.68104 -21.5258
ltibia 96.1142
lfoot -25.0011 -9.0591
ltoes -9.97306
424
root 2.00103 13.3821 -2.41387 22.7021 -1.87181 -2.2899
lowerback 40.1911 7.52157 5.71609
upperback 13.7876 11.3749 5.40543
thorax -3.91766 5.29651 -1.31198
lowerneck 0.142558 -8.07009 0.224052
upperneck 18.991 -8.93441 -10.6187
head 5.15736 -4.78322 -3.69275
rclavicle -2.8625e-014 9.93923e-014
rhumerus 28.6548 -23.3656 -83.5801
rradius 28.3807
rwrist -11.258
rhand -37.01 5.55411
rfingers 7.12502
rthumb -10.0843 -24.1843
lclavicle -2.8625e-014 9.93923e-014
lhumerus -37.4577 -50.274 98.9378
lradius 95.528
lwrist -20.479
lhand -46.7256 23.9009
lfingers 7.12502
lthumb -19.4435 52.9487
rfemur -83.6467 -39.2216 39.4223
rtibia 106.657
rfoot -27.5431 1.06047
rtoes -15.7618
lfemur -86.4164 7.39094 -21.5702
ltibia 94.8581
lfoot -24.6263 -8.9002
ltoes -9.9628
425
root 1.99808 13.5012 -2.42055 22.9517 -1.7663 -2.24939
lowerback 39.9697 7.52665 5.5041
upperback 13.7326 11.3068 5.44212
thorax -3.95926 5.25762 -1.14058
lowerneck -0.0203408 -8.03303 0.236045
upperneck 18.9154 -8.88046 -10.7094
head 5.15881 -4.76723 -3.72583
rclavicle -7.63333e-014 -5.40694e-014
rhumerus 28.4028 -22.9288 -83.0874
rradius 28.1471
rwrist -11.4839
rhand -36.0854 4.8203
rfingers 7.12502
rthumb -9.19216 -24.9594
lclavicle -7.63333e-014 -5.40694e-014
lhumerus -37.2564 -50.3708 99.0411
lradius 94.7692
lwrist -20.045
lhand -47.0534 23.9283
lfingers 7.12502
lthumb -19.7586 52.9441
rfemur -83.1499 -38.8057 39.4948
rtibia 105.416
rfoot -27.3725 0.725689
rtoes -15.3623
lfemur -85.8675 7.13675 -21.4923
ltibia 93.6087
lfoot -24.2282 -8.7522
ltoes -10.0253
426
root 1.99038 13.6249 -2.42755 23.2306 -1.69726 -2.38241
lowerback 39.6454 7.60684 5.28683
upperback 13.702 11.3236 5.53571
thorax -3.95162 5.25902 -0.927707
lowerneck -0.237312 -7.98822 0.229669
upperneck 18.8483 -8.82846 -10.7012
head 5.17853 -4.74948 -3.72868
rclavicle -9.54166e-015 3.02153e-014
rhumerus 28.282 -22.8569 -82.93
rradius 27.8936
rwrist -11.0855
rhand -35.2596 4.42452
rfingers 7.12502
rthumb -8.39531 -25.3886
lclavicle -9.54166e-015 3.02153e-014
lhumerus -36.9608 -50.5405 98.9528
lradius 94.3487
lwrist -19.7497
lhand -46.7482 24.2001
lfingers 7.12502
lthumb -19.4652 53.2458
rfemur -82.5734 -38.2135 39.7067
rtibia 104.092
rfoot -27.1751 0.402839
rtoes -14.6761
lfemur -85.3628 7.1063 -21.279
ltibia 92.3083
lfoot -23.8083 -8.82039
ltoes -9.71287
